<svg width="126" height="32" viewBox="0 0 126 32" fill="none" xmlns="http://www.w3.org/2000/svg">
  <path d="M11.685 1.968C15.4297 1.968 18.3133 3.239 20.336 5.781C22.3587 8.29567 23.37 11.9857 23.37 16.851C23.37 21.6617 22.345 25.3517 20.295 27.921C18.2723 30.4903 15.4023 31.775 11.685 31.775C7.96767 31.775 5.084 30.504 3.034 27.962C1.01133 25.42 0 21.7163 0 16.851C0 12.0677 1.01133 8.39133 3.034 5.822C5.084 3.25267 7.96767 1.968 11.685 1.968ZM11.685 6.765C10.0177 6.765 8.78767 7.544 7.995 9.102C7.22967 10.66 6.847 13.243 6.847 16.851C6.847 20.5137 7.24333 23.124 8.036 24.682C8.82867 26.2127 10.045 26.978 11.685 26.978C13.3523 26.978 14.5687 26.2127 15.334 24.682C16.1267 23.124 16.523 20.5137 16.523 16.851C16.523 13.243 16.1267 10.66 15.334 9.102C14.5687 7.544 13.3523 6.765 11.685 6.765Z" fill="#FF7474"/>
  <path d="M39.4372 30.053C38.6992 30.5997 37.8382 31.0233 36.8542 31.324C35.8975 31.6247 34.9272 31.775 33.9432 31.775C31.7292 31.775 30.0619 31.1463 28.9412 29.889C27.8205 28.6317 27.2602 26.8687 27.2602 24.6V13.694H24.6362V9.307H27.2602V4.592L33.5742 3.854V9.307H38.0432L37.3872 13.694H33.5742V24.518C33.5742 26.0213 34.1482 26.773 35.2962 26.773C35.9249 26.773 36.6082 26.568 37.3462 26.158L39.4372 30.053Z" fill="#FF7474"/>
  <path d="M53.792 8.61C55.4867 8.61 56.8123 9.184 57.769 10.332C58.753 11.4527 59.245 12.997 59.245 14.965V31.078H52.931V15.826C52.931 14.924 52.7943 14.2953 52.521 13.94C52.2477 13.5573 51.865 13.366 51.373 13.366C50.8263 13.366 50.2933 13.5983 49.774 14.063C49.282 14.5003 48.7627 15.1563 48.216 16.031V31.078H41.902V0.655999L48.216 0V11.685C48.9813 10.6463 49.815 9.881 50.717 9.389C51.619 8.86967 52.644 8.61 53.792 8.61Z" fill="url(#paint0_linear_45_17)"/>
  <path d="M81.573 19.762C81.573 20.6367 81.532 21.402 81.45 22.058H69.314C69.478 23.9713 69.9017 25.297 70.585 26.035C71.2683 26.773 72.2387 27.142 73.496 27.142C74.316 27.142 75.095 26.9917 75.833 26.691C76.571 26.3903 77.3773 25.9257 78.252 25.297L80.835 28.782C78.5937 30.7773 75.9833 31.775 73.004 31.775C69.724 31.775 67.223 30.7637 65.501 28.741C63.8063 26.691 62.959 23.8757 62.959 20.295C62.959 16.7963 63.779 13.981 65.419 11.849C67.059 9.68967 69.3687 8.61 72.348 8.61C75.218 8.61 77.473 9.58033 79.113 11.521C80.753 13.4343 81.573 16.1813 81.573 19.762ZM75.382 17.958C75.382 16.236 75.1497 14.9513 74.685 14.104C74.2477 13.2293 73.496 12.792 72.43 12.792C71.4733 12.792 70.7353 13.202 70.216 14.022C69.6967 14.8147 69.3823 16.2223 69.273 18.245H75.382V17.958Z" fill="black"/>
  <path d="M90.2173 31.775C88.4133 31.775 87.0056 31.2557 85.9943 30.217C84.9829 29.1783 84.4773 27.7297 84.4773 25.871V0.655999L90.7913 0V25.584C90.7913 26.3767 91.1193 26.773 91.7753 26.773C92.0486 26.773 92.3493 26.7183 92.6773 26.609L93.8663 30.996C92.7729 31.5153 91.5566 31.775 90.2173 31.775Z" fill="black"/>
  <path d="M101.428 31.775C99.6242 31.775 98.2165 31.2557 97.2052 30.217C96.1939 29.1783 95.6882 27.7297 95.6882 25.871V0.655999L102.002 0V25.584C102.002 26.3767 102.33 26.773 102.986 26.773C103.26 26.773 103.56 26.7183 103.888 26.609L105.077 30.996C103.984 31.5153 102.768 31.775 101.428 31.775Z" fill="black"/>
  <path d="M115.719 8.61C118.78 8.61 121.172 9.60767 122.894 11.603C124.643 13.571 125.518 16.441 125.518 20.213C125.518 23.821 124.643 26.65 122.894 28.7C121.145 30.75 118.753 31.775 115.719 31.775C112.658 31.775 110.266 30.7773 108.544 28.782C106.822 26.7867 105.961 23.9167 105.961 20.172C105.961 16.5367 106.822 13.7077 108.544 11.685C110.293 9.635 112.685 8.61 115.719 8.61ZM115.719 13.284C114.598 13.284 113.778 13.817 113.259 14.883C112.74 15.949 112.48 17.712 112.48 20.172C112.48 22.6867 112.74 24.477 113.259 25.543C113.778 26.609 114.598 27.142 115.719 27.142C116.84 27.142 117.66 26.609 118.179 25.543C118.726 24.4497 118.999 22.673 118.999 20.213C118.999 17.6983 118.739 15.9217 118.22 14.883C117.701 13.817 116.867 13.284 115.719 13.284Z" fill="black"/>
  <defs>
    <linearGradient id="paint0_linear_45_17" x1="0" y1="15.5633" x2="125.518" y2="15.5633" gradientUnits="userSpaceOnUse">
      <stop stop-color="#FF7474"/>
      <stop offset="1"/>
    </linearGradient>
  </defs>
</svg>